<svg width="18" height="18" viewBox="0 0 18 18" fill="none" xmlns="http://www.w3.org/2000/svg">
<path fill-rule="evenodd" clip-rule="evenodd" d="M7.85845 2.093H17.026C17.5639 2.093 18 2.56155 18 3.13951C18 3.71748 17.5639 4.18601 17.026 4.18601H7.85845C7.45633 5.40405 6.37367 6.27902 5.1039 6.27902C3.83412 6.27902 2.75143 5.40405 2.34935 4.18601H0.974027C0.436091 4.18601 0 3.71748 0 3.13951C0 2.56155 0.436091 2.093 0.974027 2.093H2.34935C2.75146 0.874961 3.83412 0 5.1039 0C6.37367 0 7.45633 0.874961 7.85845 2.093ZM4.13086 3.13996C4.13086 3.717 4.56781 4.18647 5.10488 4.18647C5.64196 4.18647 6.07891 3.717 6.07891 3.13996C6.07891 2.56292 5.64196 2.09346 5.10488 2.09346C4.56781 2.09346 4.13086 2.56292 4.13086 3.13996ZM7.85845 13.8139H17.026C17.5639 13.8139 18 14.2825 18 14.8605C18 15.4385 17.5639 15.907 17.026 15.907H7.85845C7.45633 17.125 6.37367 18 5.1039 18C3.83412 18 2.75143 17.125 2.34935 15.907H0.974027C0.436091 15.907 0 15.4385 0 14.8605C0 14.2825 0.436091 13.8139 0.974027 13.8139H2.34935C2.75146 12.596 3.83412 11.721 5.1039 11.721C6.37367 11.721 7.45636 12.596 7.85845 13.8139ZM4.13086 14.8607C4.13086 15.4377 4.56781 15.9072 5.10488 15.9072C5.64196 15.9072 6.07891 15.4377 6.07891 14.8607C6.07891 14.2836 5.64196 13.8142 5.10488 13.8142C4.56781 13.8142 4.13086 14.2836 4.13086 14.8607ZM17.026 7.95358H15.6507C15.2485 6.73552 14.1659 5.86056 12.8961 5.86056C11.6263 5.86056 10.5437 6.73552 10.1416 7.95358H0.974027C0.436091 7.95358 0 8.42211 0 9.00008C0 9.57804 0.436091 10.0466 0.974027 10.0466H10.1416C10.5436 11.2646 11.6263 12.1396 12.8961 12.1396C14.1659 12.1396 15.2485 11.2646 15.6507 10.0466H17.026C17.5639 10.0466 18 9.57804 18 9.00008C18 8.42211 17.5639 7.95358 17.026 7.95358ZM12.897 10.0468C12.36 10.0468 11.923 9.5773 11.923 9.00025C11.923 8.42321 12.36 7.95375 12.897 7.95375C13.4341 7.95375 13.871 8.42321 13.871 9.00025C13.871 9.5773 13.4341 10.0468 12.897 10.0468Z" fill="#3F80FF"/>
</svg>
