<svg width="16" height="16" viewBox="0 0 16 16" fill="none" xmlns="http://www.w3.org/2000/svg">
<path fill-rule="evenodd" clip-rule="evenodd" d="M7.86674 8.79999C9.78354 8.79999 11.5267 9.35519 12.8091 10.1368C13.4491 10.5288 13.9963 10.9888 14.3915 11.4888C14.7803 11.9816 15.0667 12.5704 15.0667 13.2C15.0667 13.876 14.7379 14.4088 14.2643 14.7888C13.8163 15.1488 13.2251 15.3872 12.5971 15.5536C11.3347 15.8872 9.64994 16 7.86674 16C6.08354 16 4.39875 15.888 3.13635 15.5536C2.50835 15.3872 1.91715 15.1488 1.46915 14.7888C0.994748 14.408 0.666748 13.876 0.666748 13.2C0.666748 12.5704 0.953148 11.9816 1.34195 11.4888C1.73715 10.9888 2.28355 10.5288 2.92435 10.1368C4.20675 9.35519 5.95074 8.79999 7.86674 8.79999ZM7.86674 10.4C6.24834 10.4 4.79235 10.872 3.75795 11.5032C3.24035 11.8184 2.84995 12.1608 2.59795 12.4808C2.33875 12.8088 2.26675 13.0568 2.26675 13.2C2.26675 13.2976 2.29635 13.4008 2.47075 13.5408C2.66995 13.7008 3.01635 13.8664 3.54595 14.0064C4.60035 14.2864 6.11554 14.4 7.86674 14.4C9.61874 14.4 11.1331 14.2856 12.1867 14.0064C12.7171 13.8664 13.0635 13.7008 13.2627 13.5408C13.4371 13.4008 13.4667 13.2976 13.4667 13.2C13.4667 13.056 13.3947 12.8088 13.1363 12.4808C12.8835 12.1608 12.4931 11.8184 11.9755 11.5032C10.9411 10.8712 9.48514 10.4 7.86674 10.4ZM7.86674 0C8.92761 0 9.94502 0.421427 10.6952 1.17157C11.4453 1.92172 11.8667 2.93913 11.8667 4C11.8667 5.06086 11.4453 6.07828 10.6952 6.82842C9.94502 7.57857 8.92761 7.99999 7.86674 7.99999C6.80588 7.99999 5.78846 7.57857 5.03832 6.82842C4.28817 6.07828 3.86675 5.06086 3.86675 4C3.86675 2.93913 4.28817 1.92172 5.03832 1.17157C5.78846 0.421427 6.80588 0 7.86674 0ZM7.86674 1.6C7.55157 1.6 7.23948 1.66208 6.9483 1.78269C6.65712 1.9033 6.39255 2.08008 6.16969 2.30294C5.94683 2.5258 5.77004 2.79038 5.64943 3.08156C5.52882 3.37274 5.46674 3.68482 5.46674 4C5.46674 4.31517 5.52882 4.62725 5.64943 4.91844C5.77004 5.20962 5.94683 5.47419 6.16969 5.69705C6.39255 5.91991 6.65712 6.09669 6.9483 6.21731C7.23948 6.33792 7.55157 6.39999 7.86674 6.39999C8.50326 6.39999 9.11371 6.14714 9.5638 5.69705C10.0139 5.24696 10.2667 4.63652 10.2667 4C10.2667 3.36348 10.0139 2.75303 9.5638 2.30294C9.11371 1.85285 8.50326 1.6 7.86674 1.6Z" fill="#001640"/>
</svg>
